<svg width="204" height="200" viewBox="0 0 204 200" fill="none" xmlns="http://www.w3.org/2000/svg">
<rect x="1.44954" y="1.44954" width="201.098" height="197.101" fill="#EEEEEE" stroke="#C5C5C5" stroke-width="1.10092"/>
<path d="M187.625 116.651V131.69M186.375 116.651V131.063M186.375 131.69V131.063M186.375 131.063H101.374M101.374 131.063V127.93H100.124V129.81H97.6243V131.063M101.374 131.063H97.6243M97.6243 131.063H95.1243V132.317H91.9993H187" stroke="black" stroke-width="1.125"/>
<path d="M16.4524 153.906H17.1555V153.203H17.8586V152.5H20.6711V153.203H21.3743V153.906H22.0774V156.016H21.3743V156.719H20.6711V157.422H17.8586V156.719H17.1555V156.016H16.4524V153.906ZM17.8586 153.906V156.016H18.5618V156.719H19.968V156.016H20.6711V153.906H19.968V153.203H18.5618V153.906H17.8586ZM23.4836 152.5H24.8899V154.609H26.9993V155.313H24.8899V157.422H23.4836V152.5ZM16.4524 160.937H18.5618V160.234H19.2649V159.531H19.968V158.125H21.3743V159.531H22.0774V160.234H22.7805V160.937H24.8899V161.641H22.0774V160.937H21.3743V160.234H19.968V160.937H19.2649V161.641H16.4524V160.937ZM27.3274 153.203H28.7336V158.125H27.3274V153.203ZM27.3274 158.828H28.7336V160.234H27.3274V158.828ZM33.6086 154.609H34.3118V153.906H35.0149V153.203H37.8274V153.906H38.5305V154.609H39.2336V159.531H38.5305V160.234H37.8274V160.937H35.0149V160.234H34.3118V159.531H33.6086V154.609ZM35.0149 154.609V159.531H35.718V160.234H37.1243V159.531H37.8274V154.609H37.1243V153.906H35.718V154.609H35.0149ZM40.6399 152.5H42.0461V155.313H44.1555V156.016H42.0461V158.125H44.1555V158.828H42.0461V161.641H40.6399V152.5ZM44.4836 156.719H45.1868V156.016H45.8899V155.313H46.593V152.5H47.9993V155.313H48.7024V156.016H49.4055V156.719H50.1086V157.422H48.7024V156.719H47.9993V156.016H46.593V156.719H45.8899V157.422H44.4836V156.719ZM50.8118 152.5H52.218V154.609H52.9211V152.5H54.3274V157.422H52.9211V155.313H52.218V157.422H50.8118V152.5ZM45.1868 158.828H46.593V158.125H52.9211V158.828H54.3274V160.937H52.9211V161.641H46.593V160.937H45.1868V158.828ZM46.593 159.531V160.234H47.2961V160.937H52.218V160.234H52.9211V159.531H52.218V158.828H47.2961V159.531H46.593ZM55.3586 154.609H56.0618V153.906H56.7649V153.203H59.5774V153.906H60.2805V154.609H60.9836V156.719H60.2805V157.422H59.5774V158.125H56.7649V157.422H56.0618V156.719H55.3586V154.609ZM56.7649 154.609V156.719H57.468V157.422H58.8743V156.719H59.5774V154.609H58.8743V153.906H57.468V154.609H56.7649ZM55.3586 160.234H63.093V152.5H64.4993V161.641H63.093V160.937H55.3586V160.234ZM38.2024 168.906H38.9055V168.203H39.6086V167.5H41.0149V168.203H40.3118V168.906H39.6086V175.234H40.3118V175.937H41.0149V176.641H39.6086V175.937H38.9055V175.234H38.2024V168.906ZM42.0461 169.609H42.7493V168.906H43.4524V168.203H46.2649V168.906H46.968V169.609H47.6711V174.531H46.968V175.234H46.2649V175.937H43.4524V175.234H42.7493V174.531H42.0461V169.609ZM43.4524 169.609V174.531H44.1555V175.234H45.5618V174.531H46.2649V169.609H45.5618V168.906H44.1555V169.609H43.4524ZM49.7805 167.5H51.1868V176.641H49.7805V167.5ZM52.218 167.5H53.6243V168.203H54.3274V168.906H55.0305V175.234H54.3274V175.937H53.6243V176.641H52.218V175.937H52.9211V175.234H53.6243V168.906H52.9211V168.203H52.218V167.5ZM56.0618 168.203H60.2805V174.531H59.5774V175.234H58.8743V175.937H56.7649V175.234H58.1711V174.531H58.8743V168.906H56.0618V168.203ZM63.093 167.5H64.4993V171.719H66.6086V172.422H64.4993V176.641H63.093V167.5ZM70.0774 168.203H71.4836V175.234H74.2961V174.531H75.7024V175.234H74.9993V175.937H70.7805V175.234H70.0774V168.203ZM77.1086 167.5H78.5149V171.719H80.6243V172.422H78.5149V176.641H77.1086V167.5ZM80.9524 168.203H85.8743V168.906H82.3586V171.016H85.8743V171.719H82.3586V175.234H84.468V174.531H85.8743V175.234H85.1711V175.937H81.6555V175.234H80.9524V168.203ZM87.9836 167.5H89.3899V171.719H91.4993V172.422H89.3899V176.641H87.9836V167.5ZM91.8274 167.5H93.2336V171.719H97.4524V172.422H92.5305V171.719H91.8274V167.5ZM98.8586 167.5H100.265V169.609H102.374V170.313H100.265V172.422H98.8586V167.5ZM92.5305 175.937H93.2336V175.234H93.9368V173.125H95.343V175.234H96.0461V175.937H97.4524V175.234H98.1555V173.125H99.5618V175.234H100.265V175.937H100.968V176.641H99.5618V175.937H98.1555V176.641H95.343V175.937H93.9368V176.641H92.5305V175.937ZM102.702 168.203H107.624V168.906H104.109V175.234H106.218V174.531H107.624V175.234H106.921V175.937H103.406V175.234H102.702V168.203ZM109.734 167.5H111.14V171.719H113.249V172.422H111.14V176.641H109.734V167.5ZM113.577 168.203H114.984V173.125H113.577V168.203ZM113.577 173.828H114.984V175.234H113.577V173.828Z" fill="black"/>
<path d="M16.4524 168.203H17.8586V171.719H19.968V168.203H21.3743V175.234H20.6711V175.937H17.1555V175.234H16.4524V168.203ZM17.8586 172.422V175.234H19.968V172.422H17.8586ZM22.0774 171.719H24.1868V167.5H25.593V176.641H24.1868V172.422H22.0774V171.719ZM27.3274 168.203H32.2493V168.906H28.7336V175.234H30.843V174.531H32.2493V175.234H31.5461V175.937H28.0305V175.234H27.3274V168.203ZM35.0618 167.5H36.468V176.641H35.0618V167.5Z" fill="#FF4B4B"/>
<path d="M16.9969 28.2646V42.7017M18.2469 28.2646V42.1001M18.2469 42.7017V42.1001M18.2469 42.1001H103.248M103.248 42.1001V39.0924H104.498V40.8971H106.998V42.1001M103.248 42.1001H106.998M106.998 42.1001H109.498V43.3032H112.623H17.6219" stroke="black" stroke-width="1.125"/>
<path d="M46.4519 22.9707H47.155V22.2676H47.8582V21.5645H48.5613V15.9395H49.9675V21.5645H50.6707V22.2676H51.3738V22.9707H52.0769V23.6738H50.6707V22.9707H49.9675V22.2676H48.5613V22.9707H47.8582V23.6738H46.4519V22.9707ZM51.3738 19.4551H52.78V15.2363H54.1863V24.377H52.78V20.1582H51.3738V19.4551ZM54.8894 15.2363H56.2957V24.377H54.8894V15.2363ZM58.03 15.2363H66.4675V15.9395H62.9519V16.6426H63.655V17.3457H64.3582V18.0488H66.4675V18.752H63.655V18.0488H62.9519V17.3457H61.5457V18.0488H60.8425V18.752H58.03V18.0488H60.1394V17.3457H60.8425V16.6426H61.5457V15.9395H58.03V15.2363ZM57.3269 19.4551H61.5457V18.0488H62.9519V19.4551H67.1707V20.1582H57.3269V19.4551ZM58.03 21.5645H59.4363V20.8613H65.0613V21.5645H66.4675V23.6738H65.0613V24.377H59.4363V23.6738H58.03V21.5645ZM59.4363 22.2676V22.9707H60.1394V23.6738H64.3582V22.9707H65.0613V22.2676H64.3582V21.5645H60.1394V22.2676H59.4363ZM68.2019 15.9395H69.6082V19.4551H71.7175V15.9395H73.1238V22.9707H72.4207V23.6738H68.905V22.9707H68.2019V15.9395ZM69.6082 20.1582V22.9707H71.7175V20.1582H69.6082ZM73.8269 19.4551H75.9363V15.2363H77.3425V24.377H75.9363V20.1582H73.8269V19.4551ZM79.0769 15.9395H83.9988V16.6426H80.4832V22.9707H82.5925V22.2676H83.9988V22.9707H83.2957V23.6738H79.78V22.9707H79.0769V15.9395ZM86.8113 15.2363H88.2175V24.377H86.8113V15.2363Z" fill="black"/>
<path d="M40.1245 33.2695H100.126V34.5227H40.1245" stroke="#64B364" stroke-width="1.125"/>
<path d="M39.4993 35.1516V32.6452M40.1243 32.0186H100.125M100.75 32.6452V35.1516M100.125 35.7782H40.1243" stroke="black" stroke-width="1.125"/>
<path d="M24.5 30.1309H25.625V32.3809H27.3125V30.1309H28.4375V35.7559H27.3125V32.9434H25.625V35.7559H24.5V30.1309ZM28.625 30.1309H32V30.6934H32.5625V32.3809H32V32.9434H29.75V35.7559H28.625V30.1309ZM29.75 30.6934V32.3809H31.4375V30.6934H29.75ZM33.3125 31.2559H34.4375V32.3809H33.3125V31.2559ZM33.3125 34.0684H34.4375V35.1934H33.3125V34.0684Z" fill="black"/>
<path d="M175.123 119.157H178.874M179.499 119.784V121.037M180.749 121.037V124.797M179.499 124.797V126.05M178.874 126.677H175.123M175.123 125.423H173.873M173.248 124.797V121.037M174.498 121.037V119.784" stroke="#F0D078" stroke-width="1.125"/>
<path d="M163.872 119.157H167.623M168.248 119.784V121.037M169.498 121.037V124.797M168.248 124.797V126.05M167.623 126.677H163.872M163.872 125.423H162.622M161.997 124.797V121.037M163.247 121.037V119.784" stroke="#F0D078" stroke-width="1.125"/>
<path d="M152.624 119.157H156.374M157 119.784V121.037M158.25 121.037V124.797M157 124.797V126.05M156.374 126.677H152.624M152.624 125.423H151.374M150.749 124.797V121.037M151.999 121.037V119.784" stroke="#F0D078" stroke-width="1.125"/>
<path d="M141.373 119.157H145.123M145.749 119.784V121.037M146.999 121.037V124.797M145.749 124.797V126.05M145.123 126.677H141.373M141.373 125.423H140.123M139.498 124.797V121.037M140.748 121.037V119.784" stroke="#F0D078" stroke-width="1.125"/>
<path d="M130.123 119.157H133.873M134.498 119.784V121.037M135.748 121.037V124.797M134.498 124.797V126.05M133.873 126.677H130.123M130.123 125.423H128.873M128.248 124.797V121.037M129.498 121.037V119.784" stroke="#F0D078" stroke-width="1.125"/>
<path d="M118.874 119.157H122.624M123.25 119.784V121.037M124.5 121.037V124.797M123.25 124.797V126.05M122.624 126.677H118.874M118.874 125.423H117.624M116.999 124.797V121.037M118.249 121.037V119.784" stroke="black" stroke-width="1.125"/>
<path d="M118.873 120.408H120.748M122.624 120.408H120.748M120.748 120.408V121.661H123.249V122.915H118.248V121.035" stroke="#48A058" stroke-width="1.125"/>
<path d="M118.874 121.664H120.124M117.624 124.171H123.875M118.874 125.424H122.624" stroke="#F0D078" stroke-width="1.125"/>
<rect x="132.838" y="36.1387" width="43.3229" height="3.94853" fill="#8D8D8D"/>
<rect x="132.838" y="34.1611" width="43.3229" height="3.94853" fill="#8D8D8D"/>
<rect x="134.806" y="31.2041" width="41.3537" height="3.94853" fill="#8D8D8D"/>
<rect x="133.823" y="30.2148" width="41.3537" height="3.94853" fill="#8D8D8D"/>
<rect x="133.823" y="29.2266" width="41.3537" height="3.94853" fill="#8D8D8D"/>
<rect x="134.806" y="28.2402" width="40.3701" height="3.94853" fill="#8D8D8D"/>
<rect x="134.806" y="27.2539" width="40.3701" height="3.94853" fill="#8D8D8D"/>
<rect x="135.792" y="25.2783" width="37.4162" height="3.94853" fill="#8D8D8D"/>
<rect x="135.792" y="23.3037" width="37.4162" height="3.94853" fill="#8D8D8D"/>
<rect x="136.777" y="22.3164" width="36.4315" height="2.9614" fill="#8D8D8D"/>
<rect x="137.76" y="20.3438" width="33.4774" height="2.9614" fill="#8D8D8D"/>
<rect x="163.359" y="17.3828" width="6.89265" height="3.94853" fill="#8D8D8D"/>
<rect x="138.744" y="19.3574" width="8.86198" height="3.94853" fill="#8D8D8D"/>
<rect x="139.73" y="18.3701" width="6.89265" height="3.94853" fill="#8D8D8D"/>
<rect x="133.823" y="39.1006" width="42.3383" height="2.9614" fill="#8D8D8D"/>
<rect x="135.792" y="41.0732" width="38.4008" height="2.9614" fill="#8D8D8D"/>
<rect x="139.729" y="44.0342" width="31.5082" height="0.987132" fill="#8D8D8D"/>
<rect x="139.729" y="45.0225" width="30.5235" height="0.987132" fill="#8D8D8D"/>
<rect width="30.5235" height="2.9614" transform="matrix(1 0 0 -1 139.73 47.9824)" fill="#8D8D8D"/>
<rect width="31.5082" height="8.88419" transform="matrix(1 0 0 -1 138.744 56.8682)" fill="#8D8D8D"/>
<rect width="27.5706" height="7.89706" transform="matrix(1 0 0 -1 140.715 63.7773)" fill="#8D8D8D"/>
<rect width="2.95399" height="8.88419" transform="matrix(1 0 0 -1 136.777 58.8428)" fill="#8D8D8D"/>
<rect width="2.95399" height="8.88419" transform="matrix(1 0 0 -1 143.668 65.751)" fill="#8D8D8D"/>
<rect width="2.95399" height="8.88419" transform="matrix(1 0 0 -1 160.406 65.751)" fill="#8D8D8D"/>
<rect width="2.95399" height="8.88419" transform="matrix(1 0 0 -1 163.359 65.751)" fill="#8D8D8D"/>
<rect width="2.95399" height="8.88419" transform="matrix(1 0 0 -1 164.345 64.7637)" fill="#8D8D8D"/>
<rect width="2.95399" height="3.94853" transform="matrix(1 0 0 -1 169.268 53.9062)" fill="#8D8D8D"/>
<rect width="2.95399" height="3.94853" transform="matrix(1 0 0 -1 169.268 56.8682)" fill="#8D8D8D"/>
<path d="M150.56 51.9292C150.954 51.9292 155.975 51.9292 158.437 51.9292M151.544 49.9549H157.452M151.544 50.942H158.437M153.514 48.9678H155.483M150.56 52.9163H158.437M150.56 53.9034H158.437M150.56 54.8906H158.437M151.544 55.8777H158.437M151.544 56.8648H157.452" stroke="#B4B4B4" stroke-width="0.886129"/>
<path d="M157.943 41.5661H156.466M156.466 41.5661V42.5532H154.005H151.051V41.5661M156.466 41.5661H151.051M151.051 41.5661H149.574V40.8258M150.066 38.6047H148.589V39.3451M150.066 38.6047V37.6176H152.035M150.066 38.6047C150.558 38.2757 151.642 37.6176 152.035 37.6176M150.066 38.6047L155.974 37.6176M150.066 38.6047H157.943M152.035 37.6176V37.124H154.005H155.974V37.6176M155.974 37.6176H156.959V38.1112H157.943V38.6047M158.928 40.0854H157.943V41.0726L149.574 40.8258M158.928 40.0854V39.5919M158.928 40.0854H150.066L149.574 40.8258M157.943 38.6047V39.0983H158.928V39.5919M148.589 39.3451V40.0854H149.574V40.8258M148.589 39.3451L158.928 39.5919" stroke="#B4B4B4" stroke-width="0.886129"/>
<path d="M150.56 21.3302H152.529M150.56 20.3431H159.914V21.3302M153.514 19.3559H157.452M161.39 20.3431H163.36M161.39 19.3559H164.344M162.375 18.3688H165.329M163.36 17.3817H170.252M165.329 16.3945H169.267M168.283 18.3688H171.237M169.267 19.3559H172.221M170.252 20.3431H172.221M171.237 21.3302H173.206M171.237 22.3173H173.206M172.221 23.3045H174.191M172.221 24.2916H174.191M172.221 25.2787H174.191M173.206 26.2659H175.175M173.206 27.253H175.175M174.191 28.2401H176.16M174.191 29.2272H176.16M175.175 31.6951H177.144M175.175 32.6822H177.144M177.144 33.1758H176.652V40.0857V41.5664H175.667H175.175V42.5535M177.637 33.1758V40.0857M175.175 42.5535H174.683V43.5407M175.175 42.5535H176.16M174.683 43.5407H173.698V44.5278M174.683 43.5407H176.16M173.698 44.5278H171.237V45.5149M173.698 44.5278H175.175M171.237 45.5149H169.76M171.237 45.5149H173.206M168.283 45.5149H169.76M169.76 45.5149V46.9956M170.252 47.4892H171.237M170.252 48.4763H172.221M170.252 49.4635H172.221M171.237 50.4506H173.206M171.237 51.4377H173.206M171.237 52.4248H173.206M172.221 53.412H173.206M172.221 54.3991H173.206M171.237 55.3862H173.206M173.206 56.3734H170.252M172.221 57.3605H167.298M166.314 52.4248H168.283M166.314 53.412H168.283M167.791 53.9055V54.3991V63.7769V65.2576H166.806M168.775 53.9055V63.7769M165.329 65.2576H166.806M166.806 65.2576V66.2447H165.329H160.406M163.36 65.2576H158.437M160.406 64.2704H156.467M158.437 63.2833H149.083M157.452 62.2962H151.544M152.529 64.2704H146.621M150.56 65.2576H141.206M146.621 66.2447H143.175M144.16 64.2704H140.221M143.667 63.2833H140.221M142.19 62.2962H140.221M142.19 61.309H141.698M140.221 61.309H141.698M141.698 61.309V50.9442M140.713 50.9442V60.8155M139.729 56.8669V58.8412H136.775M136.283 58.8412H136.775M136.775 58.8412V51.9313V51.4377M135.79 57.8541V51.9313M138.252 50.4506H136.775V51.4377M136.775 51.4377H138.252M137.267 48.4763H139.237M137.267 49.4635H139.237M138.252 47.4892H140.221M141.206 45.5149H138.252M140.221 44.5278H135.298M137.267 43.5407H134.313M136.283 42.5535H133.329M135.298 41.5664H132.344M134.313 40.5793H132.344M133.329 39.5921H132.344M133.329 38.605C132.935 38.605 131.852 38.605 131.36 38.605M133.329 37.6179H131.36M133.329 36.6307H131.36M133.329 35.6436H132.344M134.313 34.6565H132.344M134.313 33.6693H132.344M134.313 32.6822H132.344M135.298 31.6951H133.329M135.298 29.7208H133.329M135.298 28.7337H133.329M134.806 28.2401V25.2787M135.79 27.7465V25.2787V23.3045M136.775 24.7852V21.3302M137.76 22.8109V20.3431M138.744 20.8366V18.3688M139.729 19.8495V17.3817M140.713 18.8624V17.8752M140.713 16.3945V16.8881M140.713 16.8881H145.144M140.713 16.8881V17.8752M140.713 17.8752H145.144M145.144 17.3817H146.129M145.637 18.3688H147.114H145.144M146.129 19.3559H148.098M147.114 20.3431H148.59M149.083 20.3431H148.59M148.59 20.3431V21.8238M141.698 34.6565H140.713H138.252H137.76M140.713 33.6693H137.267M140.713 39.5921H135.79M138.744 40.5793H136.775M140.713 38.605H137.76M166.314 35.15H169.267M169.267 35.15H170.252M169.267 35.15V33.6693M166.314 36.1372H169.267M166.314 40.0857H168.775M168.775 40.0857H170.252M168.775 40.0857V41.5664M168.775 40.0857V39.0986M166.314 39.0986H168.775M168.775 39.0986H169.267M149.575 36.6307H148.59M148.59 36.6307H147.606V34.6565H148.59V36.6307ZM160.406 34.6565H159.421M159.421 34.6565H158.437V36.6307H159.421V34.6565ZM150.067 39.0986H152.037M151.052 40.0857H153.021H154.498H155.975M154.99 39.0986H155.975H156.96" stroke="black" stroke-width="1.05293"/>
<rect width="62.8865" height="5.73138" transform="matrix(0.99779 0.0664424 -0.0661025 0.997813 20.064 94.5254)" fill="#FBCE94"/>
<rect width="62.8865" height="5.73138" transform="matrix(0.99779 0.0664424 -0.0661025 0.997813 20.2524 91.6699)" fill="#FBCE94"/>
<rect width="60.028" height="5.73138" transform="matrix(0.99779 0.0664424 -0.0661025 0.997813 23.3884 87.5703)" fill="#FBCE94"/>
<rect width="60.028" height="5.73138" transform="matrix(0.99779 0.0664424 -0.0661025 0.997813 22.0586 86.0469)" fill="#FBCE94"/>
<rect width="60.028" height="5.73138" transform="matrix(0.99779 0.0664424 -0.0661025 0.997813 22.1521 84.6152)" fill="#FBCE94"/>
<rect width="58.5988" height="5.73138" transform="matrix(0.99779 0.0664424 -0.0661025 0.997813 23.6736 83.2803)" fill="#FBCE94"/>
<rect width="58.5988" height="5.73138" transform="matrix(0.99779 0.0664424 -0.0661025 0.997813 23.7681 81.8516)" fill="#FBCE94"/>
<rect width="54.3117" height="5.73148" transform="matrix(0.99779 0.0664424 -0.0661025 0.997813 25.3831 79.0879)" fill="#FBCE94"/>
<rect width="54.3117" height="5.73148" transform="matrix(0.99779 0.0664424 -0.0661025 0.997813 25.5728 76.2275)" fill="#FBCE94"/>
<rect width="52.8824" height="4.29861" transform="matrix(0.99779 0.0664424 -0.0661025 0.997813 27.0945 74.8926)" fill="#FBCE94"/>
<rect width="48.5947" height="4.29861" transform="matrix(0.99779 0.0664424 -0.0661025 0.997813 28.7092 72.1289)" fill="#FBCE94"/>
<rect width="10.0052" height="5.73148" transform="matrix(0.99779 0.0664424 -0.0661025 0.997813 66.0703 70.3057)" fill="#FBCE94"/>
<rect width="12.8639" height="5.73148" transform="matrix(0.99779 0.0664424 -0.0661025 0.997813 30.231 70.7949)" fill="#FBCE94"/>
<rect width="10.0052" height="5.73148" transform="matrix(0.99779 0.0664424 -0.0661025 0.997813 31.75 69.459)" fill="#FBCE94"/>
<rect width="61.4572" height="4.29853" transform="matrix(0.99779 0.0664424 -0.0661025 0.997813 21.2061 98.9111)" fill="#FBCE94"/>
<rect width="55.7403" height="4.29853" transform="matrix(0.99779 0.0664424 -0.0661025 0.997813 23.8689 101.962)" fill="#FBCE94"/>
<rect width="45.7358" height="1.43287" transform="matrix(0.99779 0.0664424 -0.0661025 0.997813 29.2886 106.633)" fill="#FBCE94"/>
<rect width="44.3066" height="1.43287" transform="matrix(0.99779 0.0664424 -0.0661025 0.997813 29.1941 108.062)" fill="#FBCE94"/>
<rect width="44.3066" height="4.29861" transform="matrix(0.99779 0.0664424 0.0661025 -0.997813 28.9084 112.35)" fill="#FBCE94"/>
<rect width="45.7358" height="12.8958" transform="matrix(0.99779 0.0664424 0.0661025 -0.997813 26.6304 125.122)" fill="#FBCE94"/>
<rect width="40.0198" height="11.463" transform="matrix(0.99779 0.0664424 0.0661025 -0.997813 28.8191 135.32)" fill="#FBCE94"/>
<rect width="4.28796" height="12.8958" transform="matrix(0.99779 0.0664424 0.0661025 -0.997813 23.5898 127.792)" fill="#FBCE94"/>
<rect width="4.28796" height="12.8958" transform="matrix(0.99779 0.0664424 0.0661025 -0.997813 32.9092 138.465)" fill="#FBCE94"/>
<rect width="4.28796" height="12.8958" transform="matrix(0.99779 0.0664424 0.0661025 -0.997813 57.1516 140.077)" fill="#FBCE94"/>
<rect width="4.28796" height="12.8958" transform="matrix(0.99779 0.0664424 0.0661025 -0.997813 61.4292 140.361)" fill="#FBCE94"/>
<rect width="4.28796" height="12.8958" transform="matrix(0.99779 0.0664424 0.0661025 -0.997813 62.9502 139.032)" fill="#FBCE94"/>
<rect width="4.28796" height="5.73148" transform="matrix(0.99779 0.0664424 0.0661025 -0.997813 71.1223 123.775)" fill="#FBCE94"/>
<rect width="4.28796" height="5.73148" transform="matrix(0.99779 0.0664424 0.0661025 -0.997813 70.8376 128.067)" fill="#FBCE94"/>
<path d="M47.1525 74.7941L50.0047 74.984M47.2472 73.3644L60.7949 74.2665L60.7002 75.6962M51.6201 72.2195L57.3244 72.5994M62.934 74.4089L65.7861 74.5989M63.0287 72.9792L67.3069 73.2641M64.5495 71.6445L68.8277 71.9294M66.0703 70.3097L76.0528 70.9744M69.0171 69.0699L74.7214 69.4498M73.1059 72.2142L77.3841 72.4991M74.4373 73.7389L78.7155 74.0238M75.7686 75.2636L78.6207 75.4535M77.1 76.7883L79.9521 76.9782M77.0052 78.218L79.8574 78.4079M78.3366 79.7427L81.1887 79.9326M78.2419 81.1724L81.094 81.3623M78.1472 82.6021L80.9993 82.792M79.4785 84.1268L82.3307 84.3167M79.3838 85.5565L82.2359 85.7464M80.7152 87.0812L83.5673 87.2711M80.6204 88.5109L83.4726 88.7008M81.8097 92.1802L84.6619 92.3701M81.715 93.6099L84.5671 93.7998M84.5198 94.5147L83.8068 94.4672L83.1437 104.475L83.0017 106.62L81.5756 106.525L80.8626 106.477L80.7678 107.907M85.2328 94.5622L84.5698 104.57M80.7678 107.907L79.3418 107.812L79.2471 109.242M80.7678 107.907L82.1939 108.002M79.2471 109.242L77.821 109.147L77.7263 110.577M79.2471 109.242L82.0992 109.432M77.7263 110.577L74.8741 110.387L74.7794 111.816M77.7263 110.577L80.5784 110.767M74.7794 111.816L72.6403 111.674M74.7794 111.816L77.6316 112.006M70.5012 111.532L72.6403 111.674M72.6403 111.674L72.4982 113.819M73.1639 114.581L74.59 114.676M73.0692 116.011L75.9213 116.201M72.9745 117.44L75.8266 117.63M74.3059 118.965L77.158 119.155M74.2111 120.395L77.0633 120.585M74.1164 121.824L76.9686 122.014M75.4478 123.349L76.8738 123.444M75.3531 124.779L76.7791 124.874M73.8323 126.114L76.6844 126.304M76.5897 127.733L72.3115 127.448M75.0689 129.068L67.9386 128.593M66.9861 121.35L69.8382 121.54M66.8914 122.779L69.7435 122.969M68.9831 123.637L68.9357 124.352L68.0359 137.934L67.8939 140.078L66.4678 139.983M70.4092 123.732L69.462 138.029M64.3287 139.841L66.4678 139.983M66.4678 139.983L66.3731 141.413L64.234 141.271L57.1036 140.796M61.4766 139.651L54.3462 139.176M57.2931 137.937L51.5888 137.557M54.5356 136.317L40.988 135.415M53.2043 134.792L44.6479 134.222M45.8845 137.177L37.3281 136.607M42.9377 138.417L29.39 137.514M37.1387 139.466L32.1474 139.134M33.7629 136.37L28.0587 135.99M33.1446 134.892L28.1534 134.56M31.1002 133.32L28.2481 133.13M31.1949 131.891L30.4819 131.843M28.3428 131.701L30.4819 131.843M30.4819 131.843L31.4764 116.831M30.0504 116.736L29.1032 131.033M28.056 125.219L27.8666 128.079L23.5883 127.794M22.8753 127.747L23.5883 127.794M23.5883 127.794L24.2514 117.786L24.2987 117.071M22.257 126.269L22.8253 117.691M26.5325 115.784L24.3934 115.641L24.2987 117.071M24.2987 117.071L26.4378 117.214M25.2959 112.829L28.148 113.019M25.2012 114.259L28.0533 114.449M26.8167 111.495L29.6688 111.685M31.2843 108.92L27.0061 108.635M29.953 107.395L22.8226 106.921M25.7695 105.681L21.4913 105.396M24.4381 104.156L20.1599 103.871M23.1068 102.631L18.8286 102.347M21.7754 101.107L18.9233 100.917M20.4441 99.5821L19.018 99.4871M20.5388 98.1524C19.9684 98.1144 18.3997 98.0099 17.6866 97.9625M20.6335 96.7227L17.7814 96.5327M20.7282 95.2929L17.8761 95.103M20.8229 93.8632L19.3969 93.7683M22.3437 92.5285L19.4916 92.3385M22.4384 91.0987L19.5863 90.9088M22.5331 89.669L19.681 89.4791M24.0539 88.3343L21.2018 88.1443M24.2434 85.4748L21.3912 85.2849M24.3381 84.0451L21.4859 83.8552M23.6724 83.2828L23.9565 78.9936M25.1458 82.6629L25.3826 79.0886L25.572 76.2291M26.856 78.4687L27.1875 73.4647M28.4715 75.7042L28.7083 72.1299M30.087 72.9397L30.3238 69.3654M31.6078 71.605L31.8446 68.0307M33.1286 70.2702L33.2233 68.8405M33.3654 66.6959L33.318 67.4108M33.318 67.4108L39.7354 67.8381M33.318 67.4108L33.2233 68.8405M33.2233 68.8405L39.6406 69.2678M39.688 68.5529L41.1141 68.6479M40.3063 70.0301L42.4454 70.1726L39.5933 69.9827M40.9246 71.5073L43.7768 71.6973M42.256 73.032L44.3951 73.1745M45.1081 73.2219L44.3951 73.1745M44.3951 73.1745L44.253 75.319M19.0627 88.0019L17.6366 87.9069L14.0714 87.6695L13.3584 87.6221M17.7313 86.4772L12.7401 86.1449M17.163 95.0555L10.0327 94.5807M14.2162 96.2953L11.364 96.1054M17.2578 93.6258L12.9795 93.3409M88.0376 95.4669L92.3158 95.7518M93.7419 95.8468L92.3158 95.7518M92.3158 95.7518L92.4579 93.6072M87.9429 96.8967L92.2211 97.1815M87.6587 101.186L91.2239 101.423M91.9369 101.471L91.2239 101.423M87.564 102.616L93.2683 102.995M90.9871 104.998L91.2239 101.423" stroke="black" stroke-width="1.35"/>
<rect x="11.9995" y="132.943" width="65.0013" height="17.5449" fill="#EEEEEE"/>
<path d="M3.24951 141.715H3.8745M5.12449 141.715V139.836M5.12449 141.715H8.87444M5.12449 141.715H3.8745M10.7494 141.715H10.1244M8.87444 141.715V140.462H7.62445V139.209H5.74948M8.87444 141.715H10.1244M3.8745 141.715V143.595M10.1244 141.715V143.595M8.87444 143.595V144.848M5.12449 143.595V144.848M8.24944 145.475H6.37447V147.355M8.87444 146.102V147.355M10.1244 144.848V146.102M7.62445 147.355V187.457M5.12449 147.355V187.457M10.7494 144.222H193.247M191.997 142.969H11.9994M10.7494 140.462H193.247M193.872 143.595V141.715H195.122V139.836M195.747 139.209H197.622V140.462H198.872V141.715H195.747H200.122M200.747 141.715H200.122M200.122 141.715V142.969V143.595M198.872 143.595V144.848M195.122 143.595V144.848M193.872 144.848V146.102M195.747 145.475H197.622V189.337M197.622 189.337H195.747M197.622 189.337V190.59M197.622 190.59H199.497M197.622 190.59V191.844H200.122M200.747 191.844H200.122M200.122 191.844V193.097V193.723M198.872 194.35V193.723V194.977M198.247 195.603H195.747M195.122 194.977V193.723M193.872 193.723V191.844H195.122M196.997 191.844H195.122M195.122 191.844V189.964M193.872 189.964V188.711M195.122 188.711V146.102M193.247 190.59H10.7494M10.1244 189.964V188.711M8.87444 188.711V187.457M6.37447 187.457V189.337H7.62445V190.59H8.87444V191.844M8.87444 191.844H10.1244V193.723M8.87444 191.844H5.12449M5.12449 191.844V189.964M5.12449 191.844H3.8745V193.723M5.12449 194.977V193.723M5.74948 195.603H8.24944M8.87444 194.977V193.723M10.7494 194.35H193.247M191.997 193.097H11.9994M182.622 178.685V179.312M183.872 180.565H182.622V179.312M183.872 180.565V181.818H185.122M183.872 180.565H188.872M185.122 181.818V183.071H186.372M185.122 181.818H187.622M186.372 183.071V184.951M186.372 183.071H187.622V181.818M187.622 181.818H188.872V180.565M188.872 180.565H190.122V179.312H182.622" stroke="black" stroke-width="1.125"/>
</svg>
